# xmcd
#
# Track frame offsets:
# 150
# 13132
# 27656
# 44465
# 57868
# 75749
# 90524
# 102788
# 113539
# 137019
# 151424
# 166642
# 178954
# 195108
# 214101
# 230398
# 245531
# 256489
# 273702
# 294506
#
# Disc length: 4069 seconds
#
# Revision: 0
# Processed by: cddbd v1.5PL3 Copyright (c) Steve Scherf et al.
# Submitted via: plextools 2.11
#
DISCID=0f0fe314
DTITLE=Sean Kenny and Nadine Sommers - Line Dance Crazy 3 Disk 1(2)
DYEAR=1900
DGENRE=Line Dance
TTITLE0=Sean Kenny and Nadine Sommers - Sure Feels Real Good
TTITLE1=Sean Kenny and Nadine Sommers - I'm Alright
TTITLE2=Sean Kenny and Nadine Sommers - Mr Right
TTITLE3=Sean Kenny and Nadine Sommers - Perfect Love
TTITLE4=Sean Kenny and Nadine Sommers - Who's Cheating Who
TTITLE5=Sean Kenny and Nadine Sommers - Husbands And Wives
TTITLE6=Sean Kenny and Nadine Sommers - Do You Wanna Make Something Of It
TTITLE7=Sean Kenny and Nadine Sommers - Crazy Little Thing Called Love
TTITLE8=Sean Kenny and Nadine Sommers - Commitment
TTITLE9=Sean Kenny and Nadine Sommers - Hillbilly Shoes
TTITLE10=Sean Kenny and Nadine Sommers - Little Goodbyes
TTITLE11=Sean Kenny and Nadine Sommers - If The Jukebox Took Teardrops
TTITLE12=Sean Kenny and Nadine Sommers - Stomp
TTITLE13=Sean Kenny and Nadine Sommers - The Trouble With Never
TTITLE14=Sean Kenny and Nadine Sommers - Back In Your Arms Again
TTITLE15=Sean Kenny and Nadine Sommers - I'll Think Of A Reason Later
TTITLE16=Sean Kenny and Nadine Sommers - We Really Shouldn't Be Doing This
TTITLE17=Sean Kenny and Nadine Sommers - Kick A Little
TTITLE18=Sean Kenny and Nadine Sommers - Strawberry Wine
TTITLE19=Sean Kenny and Nadine Sommers - Swing Like That
EXTD=
EXTT0=
EXTT1=
EXTT2=
EXTT3=
EXTT4=
EXTT5=
EXTT6=
EXTT7=
EXTT8=
EXTT9=
EXTT10=
EXTT11=
EXTT12=
EXTT13=
EXTT14=
EXTT15=
EXTT16=
EXTT17=
EXTT18=
EXTT19=
PLAYORDER=
